<?xml version="1.0" encoding="UTF-8"?>
<svg width="40" height="40" viewBox="0 0 40 40" fill="none" xmlns="http://www.w3.org/2000/svg">
  <rect width="40" height="40" rx="8" fill="#2563EB"/>
  <path d="M20 10C14.4772 10 10 14.4772 10 20C10 25.5228 14.4772 30 20 30C25.5228 30 30 25.5228 30 20C30 14.4772 25.5228 10 20 10Z" fill="white" fill-opacity="0.1"/>
  <path d="M20 15C21.6569 15 23 16.3431 23 18C23 19.6569 21.6569 21 20 21C18.3431 21 17 19.6569 17 18C17 16.3431 18.3431 15 20 15Z" fill="white"/>
  <path d="M20 22C16.13 22 10 23.79 10 25.5V26C10 26.55 10.45 27 11 27H29C29.55 27 30 26.55 30 26V25.5C30 23.79 23.87 22 20 22Z" fill="white"/>
</svg>
